<?xml version="1.0" encoding="utf-8"?>
<svg version="1.1" xmlns:xlink="http://www.w3.org/1999/xlink" width="920px" height="582px" xmlns="http://www.w3.org/2000/svg">
  <defs>
    <filter x="502px" y="-3px" width="920px" height="582px" filterUnits="userSpaceOnUse" id="filter47">
      <feOffset dx="2" dy="2" in="SourceAlpha" result="shadowOffsetInner" />
      <feGaussianBlur stdDeviation="2.5" in="shadowOffsetInner" result="shadowGaussian" />
      <feComposite in2="shadowGaussian" operator="atop" in="SourceAlpha" result="shadowComposite" />
      <feColorMatrix type="matrix" values="0 0 0 0 0  0 0 0 0 0  0 0 0 0 0  0 0 0 0.349019607843137 0  " in="shadowComposite" />
    </filter>
    <g id="widget48">
      <path d="M 515 10  L 1405 10  L 1405 562  L 515 562  L 515 10  Z " fill-rule="nonzero" fill="#ffffff" stroke="none" />
      <path d="M 510 8  A 3 3 0 0 1 513 5 L 1407 5  A 3 3 0 0 1 1410 8 L 1410 564  A 3 3 0 0 1 1407 567 L 513 567  A 3 3 0 0 1 510 564 L 510 8  Z " stroke-width="10" stroke="#81d3f8" fill="none" stroke-opacity="0.301960784313725" />
    </g>
  </defs>
  <g transform="matrix(1 0 0 1 -502 3 )">
    <use xlink:href="#widget48" filter="url(#filter47)" />
    <use xlink:href="#widget48" />
  </g>
</svg>