<?xml version="1.0" encoding="utf-8"?>
<svg version="1.1" xmlns:xlink="http://www.w3.org/1999/xlink" width="140px" height="40px" xmlns="http://www.w3.org/2000/svg">
  <g transform="matrix(1 0 0 1 -698 -424 )">
    <path d="M 699 432  A 7 7 0 0 1 706 425 L 830 425  A 7 7 0 0 1 837 432 L 837 456  A 7 7 0 0 1 830 463 L 706 463  A 7 7 0 0 1 699 456 L 699 432  Z " fill-rule="nonzero" fill="#169bd5" stroke="none" fill-opacity="0.462745098039216" />
    <path d="M 698.5 432  A 7.5 7.5 0 0 1 706 424.5 L 830 424.5  A 7.5 7.5 0 0 1 837.5 432 L 837.5 456  A 7.5 7.5 0 0 1 830 463.5 L 706 463.5  A 7.5 7.5 0 0 1 698.5 456 L 698.5 432  Z " stroke-width="1" stroke="#797979" fill="none" stroke-opacity="0.454901960784314" />
  </g>
</svg>