<?xml version="1.0" encoding="utf-8"?>
<svg version="1.1" xmlns:xlink="http://www.w3.org/1999/xlink" width="111px" height="25px" viewBox="231 180  111 25" xmlns="http://www.w3.org/2000/svg">
  <path d="M 232 188  A 7 7 0 0 1 239 181 L 334 181  A 7 7 0 0 1 341 188 L 341 197  A 7 7 0 0 1 334 204 L 239 204  A 7 7 0 0 1 232 197 L 232 188  Z " fill-rule="nonzero" fill="#f0f0f0" stroke="none" />
  <path d="M 231.5 188  A 7.5 7.5 0 0 1 239 180.5 L 334 180.5  A 7.5 7.5 0 0 1 341.5 188 L 341.5 197  A 7.5 7.5 0 0 1 334 204.5 L 239 204.5  A 7.5 7.5 0 0 1 231.5 197 L 231.5 188  Z " stroke-width="1" stroke="#797979" fill="none" stroke-opacity="0.454901960784314" />
</svg>