<?xml version="1.0" encoding="utf-8"?>
<svg version="1.1" xmlns:xlink="http://www.w3.org/1999/xlink" width="300px" height="25px" viewBox="231 380  300 25" xmlns="http://www.w3.org/2000/svg">
  <path d="M 232 388  A 7 7 0 0 1 239 381 L 523 381  A 7 7 0 0 1 530 388 L 530 397  A 7 7 0 0 1 523 404 L 239 404  A 7 7 0 0 1 232 397 L 232 388  Z " fill-rule="nonzero" fill="#ffffff" stroke="none" />
  <path d="M 231.5 388  A 7.5 7.5 0 0 1 239 380.5 L 523 380.5  A 7.5 7.5 0 0 1 530.5 388 L 530.5 397  A 7.5 7.5 0 0 1 523 404.5 L 239 404.5  A 7.5 7.5 0 0 1 231.5 397 L 231.5 388  Z " stroke-width="1" stroke="#797979" fill="none" stroke-opacity="0.454901960784314" />
</svg>