<?xml version="1.0" encoding="utf-8"?>
<svg version="1.1" xmlns:xlink="http://www.w3.org/1999/xlink" width="300px" height="22px" viewBox="230 433  300 22" xmlns="http://www.w3.org/2000/svg">
  <path d="M 231 441  A 7 7 0 0 1 238 434 L 522 434  A 7 7 0 0 1 529 441 L 529 447  A 7 7 0 0 1 522 454 L 238 454  A 7 7 0 0 1 231 447 L 231 441  Z " fill-rule="nonzero" fill="#ffffff" stroke="none" />
  <path d="M 230.5 441  A 7.5 7.5 0 0 1 238 433.5 L 522 433.5  A 7.5 7.5 0 0 1 529.5 441 L 529.5 447  A 7.5 7.5 0 0 1 522 454.5 L 238 454.5  A 7.5 7.5 0 0 1 230.5 447 L 230.5 441  Z " stroke-width="1" stroke="#797979" fill="none" stroke-opacity="0.454901960784314" />
</svg>