<?xml version="1.0" encoding="utf-8"?>
<svg version="1.1" xmlns:xlink="http://www.w3.org/1999/xlink" width="111px" height="22px" viewBox="231 133  111 22" xmlns="http://www.w3.org/2000/svg">
  <path d="M 232 141  A 7 7 0 0 1 239 134 L 334 134  A 7 7 0 0 1 341 141 L 341 147  A 7 7 0 0 1 334 154 L 239 154  A 7 7 0 0 1 232 147 L 232 141  Z " fill-rule="nonzero" fill="#ffffff" stroke="none" />
  <path d="M 231.5 141  A 7.5 7.5 0 0 1 239 133.5 L 334 133.5  A 7.5 7.5 0 0 1 341.5 141 L 341.5 147  A 7.5 7.5 0 0 1 334 154.5 L 239 154.5  A 7.5 7.5 0 0 1 231.5 147 L 231.5 141  Z " stroke-width="1" stroke="#797979" fill="none" stroke-opacity="0.454901960784314" />
</svg>