<?xml version="1.0" encoding="utf-8"?>
<svg version="1.1" xmlns:xlink="http://www.w3.org/1999/xlink" width="50px" height="46px" xmlns="http://www.w3.org/2000/svg">
  <g transform="matrix(1 0 0 1 -45 -552 )">
    <path d="M 30.1983173076923 22.4309895833333  C 30.5789262820513 22.0516493055556  30.7692307692308 21.6024305555556  30.7692307692308 21.0833333333333  C 30.7692307692308 20.5642361111111  30.5789262820513 20.1150173611111  30.1983173076923 19.7356770833333  C 29.8177083333333 19.3563368055556  29.3669871794872 19.1666666666667  28.8461538461538 19.1666666666667  L 21.1538461538462 19.1666666666667  C 20.6330128205128 19.1666666666667  20.1822916666667 19.3563368055556  19.8016826923077 19.7356770833333  C 19.4210737179487 20.1150173611111  19.2307692307692 20.5642361111111  19.2307692307692 21.0833333333333  C 19.2307692307692 21.6024305555556  19.4210737179487 22.0516493055556  19.8016826923077 22.4309895833333  C 20.1822916666667 22.8103298611111  20.6330128205128 23  21.1538461538462 23  L 28.8461538461538 23  C 29.3669871794872 23  29.8177083333333 22.8103298611111  30.1983173076923 22.4309895833333  Z M 47.5060096153846 13.9856770833333  C 47.8866185897436 14.3650173611111  48.0769230769231 14.8142361111111  48 15.3333333333333  L 48 44.0833333333333  C 48.0769230769231 44.6024305555556  47.8866185897436 45.0516493055556  47.5060096153846 45.4309895833333  C 47.1254006410256 45.8103298611111  46.6746794871795 46  46.1538461538462 46  L 3.84615384615385 46  C 3.32532051282051 46  2.87459935897436 45.8103298611111  2.49399038461538 45.4309895833333  C 2.11338141025641 45.0516493055556  1.92307692307692 44.6024305555556  2 44.0833333333333  L 2 15.3333333333333  C 1.92307692307692 14.8142361111111  2.11338141025641 14.3650173611111  2.49399038461538 13.9856770833333  C 2.87459935897436 13.6063368055556  3.32532051282051 13.4166666666667  3.84615384615385 14  L 46.1538461538462 14  C 46.6746794871795 13.4166666666667  47.1254006410256 13.6063368055556  47.5060096153846 13.9856770833333  Z M 49.4290865384615 0.569010416666665  C 49.8096955128205 0.948350694444438  50 1.39756944444444  50 1.91666666666666  L 50 9.58333333333334  C 50 10.1024305555556  49.8096955128205 10.5516493055556  49.4290865384615 10.9309895833333  C 49.0484775641026 11.3103298611111  48.5977564102564 11.5  48.0769230769231 12  L 1.92307692307692 12  C 1.40224358974359 11.5  0.951522435897436 11.3103298611111  0.570913461538461 10.9309895833333  C 0.190304487179487 10.5516493055556  0 10.1024305555556  0 9.58333333333334  L 0 1.91666666666666  C 0 1.39756944444444  0.190304487179487 0.948350694444438  0.570913461538461 0.569010416666665  C 0.951522435897436 0.189670138888887  1.40224358974359 0  1.92307692307692 0  L 48.0769230769231 0  C 48.5977564102564 0  49.0484775641026 0.189670138888887  49.4290865384615 0.569010416666665  Z " fill-rule="nonzero" fill="#000000" stroke="none" transform="matrix(1 0 0 1 45 552 )" />
  </g>
</svg>