<?xml version="1.0" encoding="utf-8"?>
<svg version="1.1" xmlns:xlink="http://www.w3.org/1999/xlink" width="43px" height="64px" xmlns="http://www.w3.org/2000/svg">
  <defs>
    <mask fill="white" id="clip45">
      <path d="M 42.2611683848797 3.84769539078156  C 42.7537227949599 4.2752171008684  43 4.76686706746826  43 5.32264529058116  C 43 5.87842351369405  42.7537227949599 6.37007348029392  42.2611683848797 6.79759519038076  L 13.2250859106529 32  L 42.2611683848797 57.2024048096192  C 42.7537227949599 57.6299265197061  43 58.1215764863059  43 58.6773547094188  C 43 59.2331329325317  42.7537227949599 59.7247828991316  42.2611683848797 60.1523046092184  L 38.5670103092784 63.3587174348697  C 38.0744558991982 63.7862391449566  37.508018327606 64  36.8676975945017 64  C 36.2273768613975 64  35.6609392898053 63.7862391449566  35.1683848797251 63.3587174348697  L 0.738831615120275 33.4749498997996  C 0.246277205040092 33.0474281897128  0 32.5557782231129  0 32  C 0 31.4442217768871  0.246277205040092 30.9525718102872  0.738831615120275 30.5250501002004  L 35.1683848797251 0.641282565130261  C 35.6609392898053 0.213760855043418  36.2273768613975 0  36.8676975945017 0  C 37.508018327606 0  38.0744558991982 0.213760855043418  38.5670103092784 0.641282565130261  L 42.2611683848797 3.84769539078156  Z " fill-rule="evenodd" />
    </mask>
  </defs>
  <g transform="matrix(1 0 0 1 -15 -473 )">
    <path d="M 42.2611683848797 3.84769539078156  C 42.7537227949599 4.2752171008684  43 4.76686706746826  43 5.32264529058116  C 43 5.87842351369405  42.7537227949599 6.37007348029392  42.2611683848797 6.79759519038076  L 13.2250859106529 32  L 42.2611683848797 57.2024048096192  C 42.7537227949599 57.6299265197061  43 58.1215764863059  43 58.6773547094188  C 43 59.2331329325317  42.7537227949599 59.7247828991316  42.2611683848797 60.1523046092184  L 38.5670103092784 63.3587174348697  C 38.0744558991982 63.7862391449566  37.508018327606 64  36.8676975945017 64  C 36.2273768613975 64  35.6609392898053 63.7862391449566  35.1683848797251 63.3587174348697  L 0.738831615120275 33.4749498997996  C 0.246277205040092 33.0474281897128  0 32.5557782231129  0 32  C 0 31.4442217768871  0.246277205040092 30.9525718102872  0.738831615120275 30.5250501002004  L 35.1683848797251 0.641282565130261  C 35.6609392898053 0.213760855043418  36.2273768613975 0  36.8676975945017 0  C 37.508018327606 0  38.0744558991982 0.213760855043418  38.5670103092784 0.641282565130261  L 42.2611683848797 3.84769539078156  Z " fill-rule="nonzero" fill="#f2f2f2" stroke="none" transform="matrix(1 0 0 1 15 473 )" />
    <path d="M 42.2611683848797 3.84769539078156  C 42.7537227949599 4.2752171008684  43 4.76686706746826  43 5.32264529058116  C 43 5.87842351369405  42.7537227949599 6.37007348029392  42.2611683848797 6.79759519038076  L 13.2250859106529 32  L 42.2611683848797 57.2024048096192  C 42.7537227949599 57.6299265197061  43 58.1215764863059  43 58.6773547094188  C 43 59.2331329325317  42.7537227949599 59.7247828991316  42.2611683848797 60.1523046092184  L 38.5670103092784 63.3587174348697  C 38.0744558991982 63.7862391449566  37.508018327606 64  36.8676975945017 64  C 36.2273768613975 64  35.6609392898053 63.7862391449566  35.1683848797251 63.3587174348697  L 0.738831615120275 33.4749498997996  C 0.246277205040092 33.0474281897128  0 32.5557782231129  0 32  C 0 31.4442217768871  0.246277205040092 30.9525718102872  0.738831615120275 30.5250501002004  L 35.1683848797251 0.641282565130261  C 35.6609392898053 0.213760855043418  36.2273768613975 0  36.8676975945017 0  C 37.508018327606 0  38.0744558991982 0.213760855043418  38.5670103092784 0.641282565130261  L 42.2611683848797 3.84769539078156  Z " stroke-width="2" stroke="#000000" fill="none" stroke-opacity="0.450980392156863" transform="matrix(1 0 0 1 15 473 )" mask="url(#clip45)" />
  </g>
</svg>