<?xml version="1.0" encoding="utf-8"?>
<svg version="1.1" xmlns:xlink="http://www.w3.org/1999/xlink" width="43px" height="64px" xmlns="http://www.w3.org/2000/svg">
  <defs>
    <mask fill="white" id="clip43">
      <path d="M 42.2611683848797 30.5250501002004  C 42.7537227949599 30.9525718102872  43 31.4442217768871  43 32  C 43 32.5557782231129  42.7537227949599 33.0474281897128  42.2611683848797 33.4749498997996  L 7.83161512027491 63.3587174348697  C 7.33906071019473 63.7862391449566  6.77262313860252 64  6.13230240549828 64  C 5.49198167239404 64  4.92554410080183 63.7862391449566  4.43298969072165 63.3587174348697  L 0.738831615120275 60.1523046092184  C 0.246277205040092 59.7247828991316  0 59.2331329325317  0 58.6773547094188  C 0 58.1215764863059  0.246277205040092 57.6299265197061  0.738831615120275 57.2024048096192  L 29.7749140893471 32  L 0.738831615120275 6.79759519038076  C 0.246277205040092 6.37007348029392  0 5.87842351369405  0 5.32264529058116  C 0 4.76686706746826  0.246277205040092 4.2752171008684  0.738831615120275 3.84769539078156  L 4.43298969072165 0.641282565130261  C 4.92554410080183 0.213760855043418  5.49198167239404 0  6.13230240549828 0  C 6.77262313860252 0  7.33906071019473 0.213760855043418  7.83161512027491 0.641282565130261  L 42.2611683848797 30.5250501002004  Z " fill-rule="evenodd" />
    </mask>
  </defs>
  <g transform="matrix(1 0 0 1 -1856 -505 )">
    <path d="M 42.2611683848797 30.5250501002004  C 42.7537227949599 30.9525718102872  43 31.4442217768871  43 32  C 43 32.5557782231129  42.7537227949599 33.0474281897128  42.2611683848797 33.4749498997996  L 7.83161512027491 63.3587174348697  C 7.33906071019473 63.7862391449566  6.77262313860252 64  6.13230240549828 64  C 5.49198167239404 64  4.92554410080183 63.7862391449566  4.43298969072165 63.3587174348697  L 0.738831615120275 60.1523046092184  C 0.246277205040092 59.7247828991316  0 59.2331329325317  0 58.6773547094188  C 0 58.1215764863059  0.246277205040092 57.6299265197061  0.738831615120275 57.2024048096192  L 29.7749140893471 32  L 0.738831615120275 6.79759519038076  C 0.246277205040092 6.37007348029392  0 5.87842351369405  0 5.32264529058116  C 0 4.76686706746826  0.246277205040092 4.2752171008684  0.738831615120275 3.84769539078156  L 4.43298969072165 0.641282565130261  C 4.92554410080183 0.213760855043418  5.49198167239404 0  6.13230240549828 0  C 6.77262313860252 0  7.33906071019473 0.213760855043418  7.83161512027491 0.641282565130261  L 42.2611683848797 30.5250501002004  Z " fill-rule="nonzero" fill="#f2f2f2" stroke="none" fill-opacity="0.992156862745098" transform="matrix(1 0 0 1 1856 505 )" />
    <path d="M 42.2611683848797 30.5250501002004  C 42.7537227949599 30.9525718102872  43 31.4442217768871  43 32  C 43 32.5557782231129  42.7537227949599 33.0474281897128  42.2611683848797 33.4749498997996  L 7.83161512027491 63.3587174348697  C 7.33906071019473 63.7862391449566  6.77262313860252 64  6.13230240549828 64  C 5.49198167239404 64  4.92554410080183 63.7862391449566  4.43298969072165 63.3587174348697  L 0.738831615120275 60.1523046092184  C 0.246277205040092 59.7247828991316  0 59.2331329325317  0 58.6773547094188  C 0 58.1215764863059  0.246277205040092 57.6299265197061  0.738831615120275 57.2024048096192  L 29.7749140893471 32  L 0.738831615120275 6.79759519038076  C 0.246277205040092 6.37007348029392  0 5.87842351369405  0 5.32264529058116  C 0 4.76686706746826  0.246277205040092 4.2752171008684  0.738831615120275 3.84769539078156  L 4.43298969072165 0.641282565130261  C 4.92554410080183 0.213760855043418  5.49198167239404 0  6.13230240549828 0  C 6.77262313860252 0  7.33906071019473 0.213760855043418  7.83161512027491 0.641282565130261  L 42.2611683848797 30.5250501002004  Z " stroke-width="2" stroke="#000000" fill="none" stroke-opacity="0.454901960784314" transform="matrix(1 0 0 1 1856 505 )" mask="url(#clip43)" />
  </g>
</svg>